<svg width="14" height="16" viewBox="0 0 14 16" fill="none" xmlns="http://www.w3.org/2000/svg">
<path d="M10.8456 12L10.1562 4.99835C10.1562 3.29256 8.73429 1.98347 6.96768 1.98347C5.20108 1.98347 3.80072 3.29256 3.80072 4.91901L3.1544 12L1 11.8413L1.64632 4.83967C1.64632 2.20165 4.0377 0 6.96768 0C9.89767 0 12.3106 2.20165 12.3106 4.91901L13 11.8215L10.8456 12Z" fill="white"/>
<path d="M14 11H0V13H14V11Z" fill="white"/>
<path d="M7 16C7.55228 16 8 15.5523 8 15C8 14.4477 7.55228 14 7 14C6.44772 14 6 14.4477 6 15C6 15.5523 6.44772 16 7 16Z" fill="white"/>
</svg>
