<?xml version="1.0" encoding="utf-8"?>
<svg height="48" width="48" xmlns="http://www.w3.org/2000/svg">
  <path d="M 8.989 39 L 11.181 39 L 33.252 16.85 L 31.06 14.65 L 8.989 36.8 L 8.989 39 Z M 39.579 14.7 L 33.202 8.3 L 35.294 6.2 C 35.859 5.633 36.556 5.35 37.387 5.35 C 38.217 5.35 38.915 5.633 39.479 6.2 L 41.671 8.4 C 42.236 8.967 42.518 9.667 42.518 10.5 C 42.518 11.333 42.236 12.033 41.671 12.6 L 39.579 14.7 Z M 37.486 16.8 L 12.377 42 L 6 42 L 6 35.6 L 31.109 10.4 L 37.486 16.8 Z M 32.156 15.75 L 31.06 14.65 L 33.252 16.85 L 32.156 15.75 Z" style="fill-rule: evenodd; fill: rgb(255, 255, 255); paint-order: fill;"/>
</svg>