<svg width="20" height="20" viewBox="0 0 20 20" fill="none" xmlns="http://www.w3.org/2000/svg">
<path d="M10.0001 12C6.69603 12 4.00011 9.3086 4.00011 6.01012C3.97984 2.6914 6.67576 0 10.0001 0C13.3041 0 16 2.6914 16 5.98988C16 9.3086 13.3041 12 10.0001 12ZM10.0001 2.02361C7.79062 2.02361 6.00685 3.80438 6.00685 5.98988C6.00685 8.17538 7.79062 9.95616 9.97979 9.95616C12.169 9.95616 13.9527 8.17538 13.9527 5.98988C13.973 3.80438 12.1892 2.02361 10.0001 2.02361Z" fill="white"/>
<path d="M2.00803 20V18.1758C2.00803 16.5 3.29317 15.1212 4.8996 15.1212H15.1004C16.6867 15.1212 17.992 16.4788 17.992 18.1758V19.9788H20V18.1758C20 15.3333 17.8112 13 15.1004 13H4.8996C2.18876 13.0212 0 15.3333 0 18.1758V19.9788H2.00803V20Z" fill="white"/>
</svg>
