<svg width="16" height="16" viewBox="0 0 16 16" fill="none" xmlns="http://www.w3.org/2000/svg">
<path d="M6.14608 2.09836C6.72479 2.09836 7.19393 1.62863 7.19393 1.04918C7.19393 0.469734 6.72479 0 6.14608 0C5.56737 0 5.09824 0.469734 5.09824 1.04918C5.09824 1.62863 5.56737 2.09836 6.14608 2.09836Z" fill="white"/>
<path d="M9.39034 2.09836C9.96905 2.09836 10.4382 1.62863 10.4382 1.04918C10.4382 0.469734 9.96905 0 9.39034 0C8.81164 0 8.3425 0.469734 8.3425 1.04918C8.3425 1.62863 8.81164 2.09836 9.39034 2.09836Z" fill="white"/>
<path d="M12.6346 15.9998H3.38535C1.53147 15.9998 0 14.3655 0 12.3681L0.0201509 11.8031L1.87403 3.40967H14.1258L15.9595 11.6215L15.9998 12.3479C16.02 14.3655 14.5086 15.9998 12.6346 15.9998ZM8.64473 13.9822H12.6346C13.4003 13.9822 14.0049 13.2558 14.0049 12.3681L13.9847 11.8838L12.5338 5.42732H3.4861L2.01509 12.0654V12.4084C2.01509 13.2558 2.63977 13.9822 3.38535 13.9822H8.64473Z" fill="white"/>
</svg>
